<svg xmlns="http://www.w3.org/2000/svg" viewBox="0 0 512 512"><path d="M148.489 171.778l-.001 44.629c0 8.027-2.286 14.557-6.613 18.883a19.56 19.56 0 0 1-3.676 2.873v-66.384h-30.417v66.382a19.608 19.608 0 0 1-3.673-2.872c-4.326-4.326-6.613-10.855-6.612-18.883v-44.625H67.079v44.624c-.001 16.271 5.367 30.239 15.522 40.393 6.824 6.823 15.374 11.472 25.18 13.797v133.594h30.417V270.595c9.809-2.324 18.361-6.975 25.184-13.796 10.155-10.154 15.523-24.121 15.523-40.392l.001-44.627-30.417-.002zm240.518-5.069c-26.393.001-47.865 21.474-47.865 47.864v35.684c.001 21.076 13.7 39.001 32.658 45.372v108.558h30.417V295.631c18.957-6.372 32.656-24.297 32.655-45.372l.001-35.69c-.004-26.388-21.476-47.859-47.866-47.86zm17.449 83.55c0 9.62-7.826 17.446-17.446 17.447-9.622-.001-17.449-7.827-17.449-17.447v-35.684c0-9.62 7.827-17.446 17.447-17.447 9.62.001 17.447 7.828 17.449 17.445l-.001 35.686z" fill="#fff"/><path d="M473.751 31.888L297.38 74.602c-18.4 4.214-31.958 11.367-41.38 21.842-9.423-10.475-22.979-17.627-41.38-21.841L38.249 31.888 0 96.779v340.454l227.979 42.619 1.385.26h53.272L512 437.234V96.779l-38.249-64.891zm-258.187 414.7L30.417 411.975V119.242l185.147 34.613v292.733zm16.618-320.571L39.324 89.964l13.679-23.206 154.555 37.43.196.047c19.015 4.341 27.524 11.668 30.969 21.783h-6.541zm33.834 323.677h-20.035V156.435h20.035v293.259zm13.801-323.676h-6.54c3.444-10.116 11.954-17.443 30.969-21.784l154.75-37.477 13.679 23.206-192.858 36.055zm201.766 285.957l-185.148 34.613V153.855l185.148-34.613v292.733z" fill="#fff"/></svg>